<?xml version="1.0" encoding="utf-8"?>
<svg width="25px" height="28px" viewBox="0 0 25 28" version="1.1" xmlns:xlink="http://www.w3.org/1999/xlink" xmlns="http://www.w3.org/2000/svg">
  <defs>
    <filter id="filter_1">
      <feColorMatrix in="SourceGraphic" type="matrix" values="0 0 0 0 1 0 0 0 0 1 0 0 0 0 1 0 0 0 1 0" />
    </filter>
  </defs>
  <g id="discord-logo">
    <g id="discord-logo" filter="url(#filter_1)">
      <g id="Mask-group">
        <g id="Group" filter="url(#filter_1)">
          <g id="Discord" filter="url(#filter_1)">
            <path d="M10.25 0L10.06 0.22C11.3101 0.552041 12.4756 1.14505 13.48 1.96C12.2045 1.24519 10.8015 0.786594 9.35001 0.610002C8.42999 0.499266 7.50002 0.499266 6.58001 0.61L6.34 0.61C5.26478 0.732476 4.21539 1.02266 3.23 1.47C2.72 1.71 2.42 1.87 2.42 1.87C3.47389 1.05318 4.69159 0.473319 5.99 0.169997L5.85 0C4.44844 0.0693874 3.10308 0.572588 2 1.44C0.734697 3.92027 0.0507431 6.65609 0 9.44C0.966217 10.7842 2.53512 11.563 4.19 11.52L5.1 10.38C4.13574 10.136 3.2869 9.56304 2.7 8.76C2.7 8.76 2.84 8.86 3.09 9L3.14 9L3.27 9.07C3.5913 9.24825 3.92559 9.40202 4.27001 9.53C4.91707 9.78789 5.58658 9.9854 6.27001 10.12C7.44632 10.3417 8.65369 10.3417 9.83 10.12C10.5176 10.0028 11.1889 9.80479 11.83 9.53C12.3854 9.32008 12.9154 9.04837 13.41 8.72C12.8268 9.54999 11.9701 10.1483 10.99 10.41C11.4 10.93 11.89 11.52 11.89 11.52C13.5484 11.5664 15.1218 10.7872 16.09 9.44C16.0368 6.65641 15.353 3.92114 14.09 1.44C12.9884 0.576825 11.6476 0.0740194 10.25 -9.53674e-07L10.25 0L10.25 0ZM5.51 8.16C4.88392 8.2133 4.28891 7.8784 4.00964 7.31553C3.73037 6.75266 3.82363 6.07627 4.24479 5.60998C4.66596 5.14368 5.3294 4.9823 5.9177 5.20303C6.50599 5.42376 6.89952 5.98174 6.91 6.60999C6.93177 7.00166 6.79609 7.38577 6.53316 7.67688C6.27023 7.96798 5.90185 8.14192 5.51 8.16L5.51 8.16L5.51 8.16ZM10.51 8.16C9.79552 8.01639 9.2815 7.38877 9.2815 6.66C9.2815 5.93123 9.79552 5.30361 10.51 5.16C11.2245 5.30361 11.7385 5.93123 11.7385 6.66C11.7385 7.38877 11.2245 8.01639 10.51 8.16L10.51 8.16L10.51 8.16Z" transform="translate(4.0100183 6.3900003)" id="Shape" fill="none" fill-rule="evenodd" stroke="none" />
            <path d="M21.19 0L2.81002 0C1.25257 0.00551319 -0.00551414 1.27255 1.81198e-05 2.83L1.81198e-05 21.17C-0.00551796 22.7274 1.25257 23.9945 2.81001 24L18.36 24L17.64 21.46L19.39 23.29L21.05 24.82L24 27.43L24 2.83C24.0056 1.27256 22.7475 0.00551701 21.19 0L21.19 0L21.19 0ZM15.89 17.91C15.89 17.91 15.4 17.32 14.99 16.8C15.9832 16.5666 16.8618 15.9891 17.47 15.17C16.9754 15.4984 16.4454 15.7701 15.89 15.98C15.2489 16.2548 14.5776 16.4528 13.89 16.57C12.7137 16.7917 11.5063 16.7917 10.33 16.57C9.64658 16.4354 8.97707 16.2379 8.33001 15.98C7.98559 15.852 7.65131 15.6982 7.33002 15.52L7.20002 15.45L7.15002 15.45C6.90002 15.31 6.76002 15.21 6.76002 15.21C7.34692 16.013 8.19575 16.586 9.16002 16.83L8.25002 17.97C6.59514 18.013 5.02623 17.2342 4.06002 15.89C4.11076 13.1061 4.79471 10.3703 6.06001 7.89002C7.16308 7.0226 8.50845 6.51939 9.91002 6.45L10.05 6.62C8.72999 6.94476 7.49755 7.55586 6.44002 8.41C6.44002 8.41 6.74002 8.25 7.25002 8.01C8.23541 7.56266 9.2848 7.27248 10.36 7.15L10.6 7.15C11.52 7.03926 12.45 7.03926 13.37 7.15C14.8187 7.31418 16.2215 7.75914 17.5 8.46C16.4956 7.64505 15.3301 7.05204 14.08 6.72L14.27 6.5C15.6745 6.56996 17.0229 7.07298 18.13 7.94C19.393 10.4211 20.0768 13.1564 20.13 15.94C19.1296 17.2577 17.5422 17.9952 15.89 17.91L15.89 17.91L15.89 17.91Z" id="Shape#1" fill="#000000" fill-rule="evenodd" stroke="none" />
            <path d="M0 1.52C0 0.680527 0.626801 0 1.4 0C2.1732 0 2.8 0.680527 2.8 1.52C2.8 2.35947 2.1732 3.04 1.4 3.04C0.626801 3.04 0 2.35947 0 1.52L0 1.52Z" transform="translate(13.120019 11.51)" id="Ellipse" fill="#000000" fill-rule="evenodd" stroke="none" />
            <path d="M1.65964 0.0055275C1.02812 -0.0481625 0.428865 0.293081 0.152797 0.863604C-0.123271 1.43413 -0.0189953 2.1158 0.415006 2.5777C0.849006 3.0396 1.52287 3.1861 2.10946 2.94607C2.69606 2.70604 3.07393 2.12918 3.05964 1.49554C3.07665 0.70047 2.45422 0.0380249 1.65964 0.0055275L1.65964 0.0055275L1.65964 0.0055275Z" transform="translate(7.8603764 11.504473)" id="Shape#2" fill="#000000" fill-rule="evenodd" stroke="none" />
          </g>
        </g>
      </g>
    </g>
  </g>
</svg>