<?xml version="1.0" encoding="utf-8"?>
<svg width="258px" height="299px" viewBox="0 0 258 299" version="1.1" xmlns:xlink="http://www.w3.org/1999/xlink" xmlns="http://www.w3.org/2000/svg">
  <defs>
    <filter id="filter_1">
      <feColorMatrix in="SourceGraphic" type="matrix" values="0 0 0 0 1 0 0 0 0 1 0 0 0 0 1 0 0 0 1 0" />
    </filter>
    <path d="M0 0L257.5 0L257.5 298.7L0 298.7L0 0Z" id="path_1" />
    <clipPath id="mask_1">
      <use xlink:href="#path_1" />
    </clipPath>
  </defs>
  <g id="rhsu-logo-inline-mint" filter="url(#filter_1)">
    <path d="M0 0L257.5 0L257.5 298.7L0 298.7L0 0Z" id="Background" fill="none" fill-rule="evenodd" stroke="none" />
    <g clip-path="url(#mask_1)">
      <g id="Group">
        <path d="M109.66 93.1C109.16 89.9 108.16 87.1 106.76 84.5C105.26 81.9 103.96 79.7 102.76 77.8C101.56 75.9 99.5597 74 96.8597 72.1C94.1597 70.2 92.0597 68.7 90.4597 67.6C88.9597 66.5 86.3597 65.2 82.6597 63.6C79.0597 62.1 76.3597 61 74.7597 60.4L65.8597 57C58.5597 54.3 53.3597 52 50.3597 50.1C47.2597 48.2 45.7597 46 45.7597 43.6C45.7597 40.6 47.1597 38.6 49.8597 37.7C52.5597 36.8 56.5597 36.3 61.6597 36.3C70.9597 36.3 79.9597 37.8 88.4597 40.6C92.8597 42.1 95.9597 40.6 97.7597 36.3L104.66 18.4C106.06 14.5 104.86 11.5 100.76 9.3C89.3597 3.10001 74.7597 0 56.8597 0C19.9597 0 1.45967 14 1.45967 42C1.45967 48.3 2.25967 53.9 4.05967 58.8C5.85967 63.8 7.95967 67.8 10.5597 71C13.1597 74.1 16.6597 77.1 20.9597 79.8C25.3597 82.5 29.2597 84.6 32.7597 86C36.2597 87.5 40.6597 89 45.9597 90.8C53.2597 93.2 58.4597 95.3 61.5597 97.1C64.6597 98.9 66.2597 101 66.2597 103.4C66.2597 109.1 59.4597 111.9 45.7597 111.9C36.4597 111.9 26.8597 109.9 16.9597 105.8C12.6597 103.9 9.55966 105.4 7.65966 110.1L0.559662 129C-0.840338 133 0.359663 136.1 4.45966 138.1C17.2597 144.9 33.8597 148.3 54.2597 148.3C64.6597 148.3 73.9597 146.9 82.1597 144.1C90.3597 141.3 97.1597 136.5 102.56 129.6C107.96 122.7 110.66 114 110.46 103.6C110.46 99.8 110.16 96.3 109.66 93.1L109.66 93.1ZM73.3597 129.4C67.3597 131.9 60.1597 133 50.4597 133C41.7597 133 32.9597 131.7 24.1597 129L25.5597 124.2C33.8597 126.7 42.2597 128 50.4597 128C59.4597 128 66.0597 127 71.4597 124.8C80.3597 121.1 85.5597 113.9 85.5597 105C85.5597 97.3 81.1597 90.3999 73.5597 86.1C69.5597 83.8 63.7597 81.5 55.3597 78.7C50.7597 77.2 46.4597 75.7 42.9597 74.2C31.8597 69.8 24.6597 63.2 21.5597 54.8C17.1597 42.9 22.5597 31.6 23.1597 30.5C24.0597 28.6 35.8597 4.99997 81.8597 18.3L80.4597 23.1C37.9597 10.8 28.0597 31.7 27.6597 32.6L27.5597 32.7C27.5597 32.8 22.3597 42.9 26.1597 53.1C28.7597 60.1 35.0597 65.7 44.7597 69.6C48.1597 71 52.2597 72.5 56.7597 73.9C65.4597 76.8 71.5597 79.2 75.8597 81.7C85.0597 86.9 90.4597 95.4 90.4597 105C90.4597 115.8 84.0597 124.9 73.3597 129.4L73.3597 129.4Z" transform="translate(4.9403276 150.40002)" id="Shape" fill="#D2ECEB" fill-rule="evenodd" stroke="none" />
        <path d="M120.6 51.6C120.6 33.1 115.5 19.8 105.2 11.9C94.9 4 79.5 0 59.1 0L7.3 0C2.4 0 0 2.4 0 7.3L0 136.3C0 141.2 2.4 143.6 7.3 143.6L36.6 143.6C41.5 143.6 43.9 141.2 43.9 136.3L43.9 101L54.2 101L75.1 137.8C77.4 141.7 80.8 143.7 85.3 143.7L114.9 143.7C117.5 143.7 119.2 142.8 120 141C120.8 139.2 120.5 137 119 134.6L94.6 94.4C111.9 86.3 120.6 72 120.6 51.6L120.6 51.6ZM89.7 76.7C84.8 80.9 78.9 83.6 71.7 85L95.1 129.6L90.7 131.9L66.4 85.7C64.3 85.9 62.1 86 59.9 86L23.9 86L23.9 130.5L18.9 130.5L18.9 15.8L59.8 15.8C61.3 15.7 79.6 15.1 91.3 26.2C97.7 32.2 100.9 40.5 100.9 50.9C100.9 61.8 97.2 70.3 89.7 76.7L89.7 76.7Z" id="Shape" fill="#D2ECEB" fill-rule="evenodd" stroke="none" />
        <path d="M113.7 0L84 0C79.1 0 76.7 2.4 76.7 7.3L76.7 51.4L44.2 51.4L44.2 7.3C44.2 2.4 41.8 0 36.9 0L7.3 0C2.40001 0 0 2.4 0 7.3L0 136.5C0 141.4 2.39999 143.8 7.3 143.8L36.9 143.8C41.8 143.8 44.2 141.4 44.2 136.5L44.2 90.4L76.7 90.4L76.7 136.5C76.7 141.4 79.1 143.8 84 143.8L113.7 143.8C118.6 143.8 121 141.4 121 136.5L121 7.3C121 2.4 118.6 0 113.7 0L113.7 0ZM96.1 130.6L96 74.3L24.5 74.3L24.5 130.6L19.5 130.6L19.5 17L24.5 17L24.5 69.3L96 69.3L95.9 17L100.9 17L101.1 130.6L96.1 130.6L96.1 130.6Z" transform="translate(136.99998 0)" id="Shape" fill="#D2ECEB" fill-rule="evenodd" stroke="none" />
        <path d="M36.1 0.0213013L36 0.0213013L0 0.0213013L0 60.2213L36 60.2213C47.5 60.2213 56.2 57.6213 62.6 52.1213C68.9 46.7213 72 39.5213 72 30.1213C72 21.2213 69.3 14.1213 64 9.0213C53.5 -0.878698 36.3 0.0213013 36.1 0.0213013L36.1 0.0213013ZM48.3 42.1213C45.5 44.6213 41 45.8213 34.6 45.8213L20 45.8213L20 15.7213L34.6 15.7213C41.1 15.7213 45.7 16.7213 48.4 18.8213C51.1 20.9213 52.5 24.9213 52.5 30.7213C52.5 35.9213 51.1 39.7213 48.3 42.1213L48.3 42.1213Z" transform="translate(23.900002 20.778698)" id="Shape" fill="#D2ECEB" fill-rule="evenodd" stroke="none" />
        <path d="M112.9 0.100006L83.3 0.100006C78.4 0.100006 76 2.5 76 7.40001L76 85.8C76 93.2 74.7 98.6 72.3 102C69.8 105.4 65.8 107.1 60.1 107.1C54.4 107.1 50.3 105.4 47.9 102C45.4 98.6 44.2 93.1 44.2 85.5L44.2 7.3C44.2 2.40001 41.8 0 36.9 0L7.3 0C2.40001 0 0 2.39999 0 7.3L0 89.8C0 127.3 20.1 146.1 60.1 146.2C100.2 146.2 120.2 127.4 120.2 89.9L120.2 7.40001C120.2 2.5 117.8 0.100006 112.9 0.100006L112.9 0.100006ZM59.9 128.6C19.9 128.6 19.2 93 19.2 92.6L19.2 13.5L24.2 13.5L24.2 92.6C24.2 93.8 24.9 123.6 59.9 123.6L59.9 128.6L59.9 128.6ZM100.8 92.5C100.8 92.9 100 128.5 60.1 128.5L60.1 123.5C95 123.5 95.8 93.7 95.8 92.5L95.8 13.4L100.8 13.4L100.8 92.5L100.8 92.5Z" transform="translate(137.29999 151.5)" id="Shape" fill="#D2ECEB" fill-rule="evenodd" stroke="none" />
      </g>
    </g>
  </g>
</svg>