<?xml version="1.0" standalone="no"?>
<!DOCTYPE svg PUBLIC "-//W3C//DTD SVG 20010904//EN"
 "http://www.w3.org/TR/2001/REC-SVG-20010904/DTD/svg10.dtd">
<svg version="1.0" xmlns="http://www.w3.org/2000/svg"
 width="370.000000pt" height="370.000000pt" viewBox="0 0 370.000000 370.000000"
 preserveAspectRatio="xMidYMid meet">
<metadata>
Created by potrace 1.14, written by Peter Selinger 2001-2017
</metadata>
<g transform="translate(0.000000,370.000000) scale(0.100000,-0.100000)"
fill="#000000" stroke="none">
<path d="M2298 3365 c-3 -4 -43 -8 -89 -10 -46 -2 -95 -6 -109 -10 -14 -4 -41
-8 -60 -9 -19 -1 -44 -7 -55 -13 -11 -5 -47 -11 -80 -13 -90 -4 -137 -8 -166
-14 -14 -3 -39 -7 -55 -9 -17 -2 -35 -7 -42 -11 -7 -4 -16 -5 -21 -1 -5 3 -12
1 -16 -4 -3 -5 -13 -9 -23 -9 -9 0 -30 -5 -47 -12 -16 -7 -37 -14 -45 -15 -24
-3 -191 -76 -232 -102 -21 -13 -38 -20 -38 -16 0 5 -4 3 -8 -2 -4 -6 -32 -26
-62 -45 -30 -19 -63 -43 -72 -53 -9 -10 -19 -18 -22 -17 -7 1 -13 -4 -85 -67
-50 -44 -92 -86 -153 -154 -13 -15 -48 -33 -83 -44 -33 -10 -64 -21 -70 -25
-5 -3 -43 -19 -82 -35 -40 -15 -73 -33 -73 -38 0 -10 174 -2 192 9 4 3 8 2 8
-1 0 -8 -21 -49 -29 -55 -3 -3 -11 -14 -17 -25 -6 -11 -61 -45 -123 -76 -62
-31 -121 -65 -132 -74 -10 -10 -19 -15 -19 -11 0 4 -6 1 -13 -6 -8 -7 -26 -22
-41 -33 -56 -41 -156 -138 -156 -151 0 -8 -4 -13 -9 -12 -9 3 -102 -104 -95
-111 4 -4 54 18 64 29 6 7 53 28 60 27 3 -1 23 8 45 20 22 12 54 26 70 32 17
6 44 16 60 22 30 12 44 17 68 22 6 1 18 6 24 10 7 5 13 6 13 3 0 -3 12 -1 26
4 25 10 26 9 19 -17 -8 -31 -8 -34 -28 -116 -15 -60 -16 -65 -18 -69 -5 -16
-10 -105 -12 -255 -3 -117 -8 -187 -15 -196 -7 -8 -9 -17 -5 -20 3 -4 1 -12
-4 -19 -14 -18 -35 -146 -27 -160 4 -7 3 -8 -4 -4 -8 5 -12 -3 -12 -24 0 -36
15 -33 24 5 4 14 19 44 34 68 31 49 45 45 50 -13 1 -19 7 -39 12 -44 6 -6 10
-20 10 -31 0 -21 30 -101 71 -192 10 -23 19 -47 19 -52 0 -6 4 -11 9 -11 5 0
14 -12 20 -27 10 -29 41 -84 52 -93 3 -3 22 -30 42 -60 65 -99 186 -224 297
-310 25 -19 47 -38 50 -41 21 -25 242 -143 335 -179 73 -28 91 -35 95 -36 3 0
23 -6 45 -12 54 -16 188 -41 250 -46 28 -3 50 -5 50 -6 0 -7 36 -6 41 1 3 5
13 6 22 1 21 -10 63 -9 79 1 6 4 14 3 18 -3 4 -6 11 -7 17 -4 6 4 36 8 67 10
31 1 70 5 86 7 83 15 105 19 160 33 33 9 65 16 70 17 6 1 12 4 15 7 3 3 30 13
60 24 72 24 143 57 152 70 4 6 8 8 8 3 0 -4 18 4 40 18 22 14 44 25 50 25 5 0
10 5 10 10 0 6 5 10 12 10 6 0 26 11 44 25 18 14 35 25 38 25 3 0 14 8 24 18
11 9 38 32 61 51 59 48 151 140 151 152 0 6 5 7 10 4 6 -3 10 -2 10 3 0 4 13
23 30 42 16 18 27 37 23 43 -3 6 -2 7 4 4 5 -4 16 6 24 21 8 14 21 34 29 43
33 38 40 49 33 49 -4 0 -3 4 3 8 23 16 145 284 158 348 2 10 9 30 14 44 5 14
10 27 10 30 0 3 4 23 8 45 4 22 8 45 8 50 2 20 22 43 51 58 72 36 97 85 79
153 -7 25 -53 54 -86 54 -22 0 -23 3 -24 78 0 42 -3 94 -6 114 -5 32 -3 36 13
33 24 -5 24 -4 -6 31 -14 16 -25 36 -26 44 -1 19 -3 30 -24 105 -10 33 -17 65
-17 70 1 57 13 208 17 216 4 5 3 9 -2 9 -4 0 -8 19 -9 43 0 23 -3 57 -7 75 -7
40 -52 133 -78 161 -11 11 -19 23 -19 27 0 16 -271 284 -286 284 -3 0 -12 7
-20 15 -9 8 -13 15 -10 15 4 0 0 15 -8 33 -15 36 -61 88 -70 79 -3 -3 -6 -1
-6 5 0 11 -2 11 -90 16 -56 3 -148 24 -200 44 -20 8 -17 7 -85 23 -33 7 -66
13 -72 13 -7 0 -13 3 -13 7 0 5 -53 12 -115 13 -11 1 -23 4 -26 9 -3 5 -8 6
-11 3z m-1418 -1033 c0 -4 -11 -19 -24 -34 -14 -14 -23 -28 -20 -31 3 -2 -2
-7 -11 -10 -13 -6 -13 -3 0 30 8 19 15 37 15 38 0 2 8 6 18 8 9 3 18 5 20 6 1
0 2 -2 2 -7z m94 -378 c4 -15 22 -50 41 -80 l34 -52 -30 -11 c-16 -5 -29 -7
-29 -3 0 3 -7 -3 -15 -15 -13 -18 -13 -26 -3 -43 7 -11 23 -20 35 -20 13 0 23
-5 23 -11 0 -5 4 -8 9 -4 21 13 19 -15 -3 -48 -13 -19 -22 -38 -18 -41 3 -3 0
-6 -6 -6 -6 0 -13 -13 -17 -30 -4 -16 -10 -30 -15 -30 -4 0 -14 -20 -21 -45
-7 -25 -16 -45 -20 -45 -4 0 -10 -11 -13 -25 -3 -13 -11 -37 -18 -52 -6 -15
-12 -30 -13 -33 -1 -3 -5 -13 -9 -22 -4 -9 -9 -25 -11 -35 -2 -10 -4 -20 -5
-23 -1 -3 -2 -8 -1 -12 0 -5 -2 -8 -6 -8 -18 0 -93 200 -108 285 -2 11 -6 34
-10 50 -3 17 -8 67 -11 111 l-6 82 39 35 c21 19 50 45 66 58 15 13 48 43 74
66 26 23 50 40 54 38 4 -3 10 -17 13 -31z m166 -861 c-15 -49 -24 -92 -20 -97
5 -5 5 -16 0 -25 -5 -9 -11 -24 -14 -35 -5 -16 -12 -12 -47 25 -64 68 -66 76
-27 114 31 30 126 105 133 105 1 0 -10 -39 -25 -87z m325 -352 c2 -27 6 -54 9
-60 7 -10 -6 -9 -42 3 -13 4 -21 13 -19 19 19 48 42 95 45 92 2 -2 5 -26 7
-54z"/>
</g>
</svg>
