<?xml version="1.0" standalone="no"?>
<!DOCTYPE svg PUBLIC "-//W3C//DTD SVG 20010904//EN"
 "http://www.w3.org/TR/2001/REC-SVG-20010904/DTD/svg10.dtd">
<svg version="1.0" xmlns="http://www.w3.org/2000/svg"
 width="2400.000000pt" height="2400.000000pt" viewBox="0 0 2400.000000 2400.000000"
 preserveAspectRatio="xMidYMid meet">
<metadata>
Created by potrace 1.14, written by Peter Selinger 2001-2017
</metadata>
<g transform="translate(0.000000,2400.000000) scale(0.100000,-0.100000)"
fill="#000000" stroke="none">
<path d="M16187 22313 c-1 0 -31 -4 -67 -7 -71 -6 -102 -11 -170 -26 -25 -6
-54 -12 -65 -14 -90 -17 -328 -120 -405 -175 -21 -14 -48 -33 -60 -41 -143
-96 -285 -243 -395 -410 -17 -25 -34 -48 -38 -51 -5 -3 -8 -9 -8 -13 0 -3 -15
-40 -34 -82 -19 -42 -35 -80 -35 -85 0 -5 -5 -17 -10 -27 -20 -33 -80 -208
-95 -277 -15 -66 -33 -168 -40 -224 -3 -25 -7 -46 -8 -47 -2 -2 -68 -5 -147
-8 -80 -3 -172 -8 -205 -11 -33 -3 -89 -7 -125 -10 -36 -2 -87 -7 -115 -10
-27 -2 -74 -7 -102 -10 -29 -3 -77 -7 -105 -11 -29 -3 -64 -6 -78 -8 -14 -1
-31 -6 -38 -10 -7 -4 -12 -2 -12 5 0 8 -4 8 -13 1 -7 -6 -36 -13 -65 -15 -50
-4 -55 -3 -111 42 -32 25 -90 69 -130 96 -40 28 -87 61 -105 75 -18 14 -50 34
-72 45 -21 11 -42 25 -46 30 -4 6 -11 10 -15 11 -8 0 -334 158 -433 208 -25
13 -70 31 -100 41 -30 10 -60 22 -66 26 -6 5 -14 6 -17 2 -4 -3 -7 -1 -7 5 0
7 -3 11 -7 10 -5 -1 -21 4 -38 11 -16 7 -34 14 -40 15 -5 1 -28 10 -50 20 -36
16 -236 87 -242 86 -2 0 -4 0 -5 1 -2 0 -10 2 -18 4 -8 2 -59 15 -113 29 -53
14 -113 26 -132 28 -19 1 -35 5 -35 8 0 7 -39 8 -252 10 -101 1 -194 -1 -208
-4 -14 -3 -45 -9 -70 -12 -64 -9 -69 -10 -151 -34 -41 -12 -75 -22 -76 -22 -1
1 -39 -17 -83 -39 -44 -21 -85 -39 -90 -39 -6 0 -10 -4 -10 -8 0 -10 -50 -37
-62 -34 -5 1 -8 -2 -8 -7 0 -5 -8 -12 -18 -15 -10 -4 -27 -14 -38 -24 -11 -9
-42 -33 -69 -52 -28 -19 -60 -45 -71 -57 -12 -13 -24 -23 -28 -23 -4 0 -17
-10 -30 -22 -13 -13 -41 -39 -62 -59 -41 -37 -132 -136 -172 -185 -67 -84
-169 -248 -164 -266 1 -5 -3 -8 -10 -8 -6 0 -8 -3 -5 -7 4 -3 3 -11 -2 -17
-10 -13 -49 -126 -55 -159 -3 -12 -5 -22 -6 -22 -2 0 -9 -33 -15 -65 -2 -14
-4 -26 -6 -27 -1 -2 -3 -12 -4 -23 -1 -11 -3 -21 -4 -22 -12 -15 -20 -393 -10
-471 3 -26 2 -50 -3 -53 -5 -3 -5 -11 -1 -17 4 -7 8 -34 9 -62 1 -27 5 -72 9
-100 4 -27 9 -61 10 -75 4 -47 17 -125 25 -155 4 -16 11 -42 14 -56 l6 -26
-3254 0 c-1789 0 -3257 -3 -3262 -6 -11 -6 -10 -439 1 -612 4 -66 8 -132 8
-147 0 -16 4 -28 9 -28 5 0 4 -9 -2 -20 -6 -11 -7 -20 -3 -20 4 0 8 -24 9 -53
0 -28 4 -99 8 -157 4 -58 9 -139 11 -180 3 -41 7 -106 10 -145 5 -73 11 -158
20 -310 3 -49 8 -126 11 -170 6 -101 11 -173 18 -305 3 -58 8 -128 11 -156 2
-28 7 -102 11 -165 3 -63 7 -126 8 -141 1 -15 4 -29 7 -33 4 -3 3 -21 -1 -40
-4 -19 -6 -36 -3 -39 4 -4 8 -43 18 -196 2 -36 7 -110 11 -165 4 -55 7 -133 8
-172 0 -40 3 -73 6 -73 3 0 6 -28 7 -62 1 -35 4 -99 7 -143 11 -170 16 -243
20 -315 3 -41 7 -113 10 -160 4 -47 8 -119 11 -160 2 -41 7 -120 11 -175 3
-55 7 -120 8 -145 1 -25 5 -50 9 -57 4 -6 3 -14 -3 -18 -6 -4 -7 -12 -3 -18 4
-7 9 -39 10 -72 2 -59 5 -99 19 -305 4 -58 8 -122 8 -142 0 -21 4 -38 9 -38 4
0 5 -5 2 -11 -10 -15 -14 -59 -5 -59 3 0 7 -24 7 -52 1 -49 3 -97 18 -313 3
-44 7 -114 10 -155 5 -84 13 -198 20 -310 3 -41 8 -111 10 -155 3 -44 7 -118
11 -165 3 -47 7 -121 9 -165 2 -44 5 -80 5 -80 1 0 3 -25 4 -55 1 -31 5 -61
10 -68 4 -7 2 -12 -4 -12 -6 0 -8 -5 -4 -11 3 -6 8 -39 9 -74 2 -35 5 -67 7
-72 2 -4 3 -41 3 -80 0 -40 2 -73 5 -73 3 0 6 -28 6 -63 2 -63 10 -200 18
-315 3 -34 1 -60 -3 -57 -5 2 -31 7 -57 10 -27 2 -56 6 -64 8 -8 2 -33 7 -55
12 -22 4 -74 16 -115 27 -41 11 -81 21 -87 21 -7 0 -13 4 -13 9 0 5 -4 7 -8 4
-5 -3 -20 1 -35 9 -15 8 -27 12 -27 10 0 -4 -44 15 -150 62 -42 19 -70 25
-123 24 -109 -2 -118 -14 -106 -136 7 -72 103 -274 227 -479 23 -37 42 -72 42
-77 0 -5 4 -9 9 -9 5 0 11 -8 15 -17 6 -19 27 -54 37 -63 3 -3 14 -20 24 -37
11 -18 23 -33 27 -33 4 0 8 -7 8 -15 0 -8 5 -15 10 -15 6 0 10 -7 10 -15 0 -7
8 -19 18 -24 9 -6 13 -11 7 -11 -7 0 -7 -3 0 -8 6 -4 56 -68 111 -142 56 -74
112 -147 125 -161 13 -15 40 -46 59 -70 19 -24 45 -54 57 -67 11 -12 36 -41
55 -64 18 -23 46 -54 62 -71 19 -18 29 -39 29 -58 0 -16 4 -29 9 -29 5 0 4 -8
-1 -19 -6 -10 -7 -21 -4 -25 4 -4 8 -28 9 -54 5 -103 13 -247 14 -247 1 0 3
-36 5 -80 2 -44 6 -109 9 -145 7 -86 15 -205 21 -310 2 -47 7 -123 11 -170 3
-47 7 -119 9 -160 2 -41 4 -75 5 -75 1 0 3 -29 5 -65 8 -131 16 -266 21 -325
2 -33 5 -95 7 -137 1 -43 4 -78 7 -78 3 0 6 -30 7 -68 5 -223 14 -520 19 -597
9 -160 21 -265 34 -299 5 -14 7 -26 4 -26 -4 0 -2 -6 4 -12 6 -7 10 -15 9 -18
0 -3 7 -21 16 -40 9 -19 27 -63 41 -96 32 -77 97 -216 108 -229 5 -5 21 -29
36 -51 15 -23 37 -55 49 -70 12 -16 41 -54 65 -84 23 -30 45 -56 50 -58 4 -2
8 -10 8 -17 0 -7 4 -15 9 -17 5 -1 37 -37 71 -78 34 -41 71 -82 81 -91 11 -9
19 -21 19 -28 0 -6 4 -11 10 -11 5 0 21 -17 35 -37 14 -21 25 -34 25 -30 0 4
6 2 14 -5 8 -7 13 -15 11 -18 -1 -3 78 -85 177 -182 98 -97 178 -176 178 -174
0 2 32 -27 72 -65 39 -38 74 -69 77 -69 3 0 29 -22 57 -48 27 -26 72 -65 98
-86 26 -21 60 -51 76 -65 16 -14 41 -36 57 -48 15 -12 38 -31 50 -42 12 -12
25 -21 28 -21 3 0 13 -8 23 -18 33 -31 76 -67 112 -92 19 -14 42 -32 52 -40
36 -32 58 -50 259 -200 114 -85 262 -193 328 -240 67 -47 121 -89 121 -93 0
-5 4 -5 10 -2 6 3 10 2 10 -4 0 -5 9 -13 20 -16 11 -3 26 -12 33 -18 7 -7 20
-16 29 -22 66 -41 263 -172 273 -183 8 -6 17 -12 22 -12 5 0 18 -7 28 -15 39
-30 96 -65 105 -65 6 0 10 -5 10 -10 0 -6 11 -15 25 -20 28 -11 88 -51 93 -62
2 -5 8 -8 13 -8 5 0 48 -25 94 -55 47 -30 90 -55 95 -55 6 0 10 -3 10 -7 0 -5
25 -21 55 -38 30 -16 55 -33 55 -38 0 -4 5 -5 10 -2 6 3 10 2 10 -3 0 -5 10
-14 23 -19 13 -6 50 -28 83 -49 32 -21 65 -39 71 -40 7 -1 20 -9 29 -18 8 -9
20 -16 25 -16 5 0 9 -5 9 -11 0 -5 -3 -8 -7 -6 -5 3 -35 7 -68 11 -33 3 -85 8
-115 11 -30 3 -75 8 -100 10 -104 9 -193 19 -280 31 -25 3 -67 7 -95 9 -27 1
-50 3 -50 4 0 3 -49 9 -125 15 -36 3 -81 8 -100 11 -19 2 -55 7 -80 9 -25 3
-84 10 -132 16 -47 5 -110 13 -140 15 -29 3 -64 7 -78 9 -49 8 -106 15 -160
21 -30 3 -66 7 -80 9 -30 5 -106 15 -164 21 -22 3 -54 7 -71 9 -16 2 -52 7
-80 11 -27 3 -66 8 -85 11 -19 3 -46 6 -60 9 -14 2 -47 7 -75 10 -27 4 -66 9
-85 12 -19 2 -47 5 -62 6 -16 0 -28 3 -28 6 0 3 -12 6 -28 7 -33 1 -131 14
-152 19 -8 3 -32 5 -53 7 -20 1 -37 5 -37 8 0 4 -10 6 -22 5 -12 -1 -53 4 -92
11 -39 6 -93 15 -121 19 -70 10 -86 13 -120 18 -31 6 -98 16 -138 22 -12 2
-35 6 -52 10 -39 8 -95 16 -117 16 -10 0 -18 3 -18 7 0 4 -12 7 -27 8 -34 1
-127 15 -132 20 -2 1 3 32 11 68 10 45 14 110 12 208 -3 152 -5 174 -24 286
-6 39 -12 75 -13 79 -1 7 -82 323 -90 348 -1 6 -6 16 -10 23 -5 6 -6 12 -3 12
3 0 -1 18 -9 40 -8 22 -11 40 -7 40 4 0 2 4 -3 8 -9 6 -32 73 -39 112 -1 8 -7
24 -13 35 -12 22 -33 86 -33 98 0 4 -6 20 -15 37 -12 23 -22 29 -47 29 -229 5
-345 -1 -568 -26 -114 -12 -193 -22 -230 -28 -14 -2 -43 -7 -65 -10 -22 -3
-58 -9 -80 -12 -22 -4 -47 -7 -55 -8 -8 -1 -33 -5 -55 -10 -22 -5 -51 -9 -65
-11 -14 -1 -25 -3 -25 -4 0 -1 -14 -3 -32 -5 -17 -2 -66 -10 -110 -19 -98 -20
-113 -23 -154 -30 -19 -3 -68 -12 -109 -21 -41 -9 -86 -18 -100 -21 -14 -2
-45 -9 -70 -15 -25 -5 -57 -11 -71 -13 -13 -1 -31 -6 -38 -10 -7 -4 -15 -6
-18 -3 -2 3 -22 -1 -44 -8 -22 -8 -41 -14 -44 -15 -3 0 -6 -1 -7 -1 -2 -1 -19
-2 -38 -3 -20 -1 -40 -5 -45 -8 -9 -5 -67 -19 -135 -34 -49 -10 -66 -14 -175
-39 -60 -14 -119 -28 -130 -30 -11 -3 -31 -7 -45 -11 -14 -3 -29 -6 -35 -7 -5
-2 -16 -6 -22 -10 -7 -5 -13 -6 -13 -4 0 4 -52 -7 -135 -29 -11 -3 -29 -7 -40
-8 -11 -2 -27 -6 -35 -10 -8 -3 -26 -8 -40 -10 -47 -10 -185 -44 -200 -50 -8
-3 -26 -8 -40 -10 -43 -8 -64 -14 -90 -24 -14 -5 -33 -8 -42 -7 -10 2 -18 -2
-18 -8 0 -5 -3 -8 -6 -5 -3 3 -29 -1 -57 -9 -29 -8 -99 -25 -157 -39 -120 -28
-229 -62 -248 -77 -6 -5 -12 -6 -12 -2 0 4 -6 3 -13 -3 -6 -6 -16 -11 -22 -11
-14 -2 -47 -11 -70 -20 -30 -12 -92 -32 -114 -36 -10 -2 -33 -11 -50 -19 -17
-9 -31 -14 -31 -10 0 4 -6 1 -13 -5 -8 -6 -16 -8 -19 -5 -3 2 -17 -9 -31 -26
-19 -22 -24 -37 -20 -57 3 -16 6 -33 6 -40 0 -14 56 -46 117 -66 25 -9 81 -29
125 -45 44 -16 139 -51 210 -76 72 -26 139 -51 150 -56 59 -25 103 -38 109
-33 3 4 6 2 6 -3 0 -5 21 -16 48 -23 26 -8 67 -23 92 -34 25 -10 52 -20 60
-22 8 -2 38 -12 65 -22 53 -21 81 -31 93 -35 4 -1 36 -12 72 -25 36 -14 85
-31 110 -39 25 -8 54 -19 65 -24 39 -16 60 -23 68 -22 4 1 7 -1 7 -6 0 -7 -95
-130 -125 -161 -9 -9 -25 -27 -36 -41 -61 -74 -157 -175 -362 -381 -125 -126
-229 -229 -231 -229 -3 0 -25 -21 -50 -47 -54 -55 -61 -93 -22 -118 13 -9 32
-17 43 -19 20 -4 154 20 273 49 14 4 45 11 70 16 68 14 83 17 110 24 14 3 36
8 50 11 14 3 45 10 70 15 60 14 80 18 114 25 16 2 32 6 35 8 3 2 24 7 46 10
22 4 48 9 57 12 19 6 55 14 83 19 11 2 31 6 45 10 14 3 36 7 50 10 48 9 105
23 105 25 0 1 9 3 20 5 68 10 102 17 115 22 8 3 24 8 34 10 11 2 49 10 84 18
35 8 68 13 73 9 5 -3 9 -1 9 4 0 5 6 9 13 9 6 0 46 8 87 17 41 9 84 18 95 21
11 2 54 11 95 20 41 10 84 19 95 20 11 2 22 4 25 6 3 1 10 3 15 4 6 1 26 5 45
10 19 4 44 9 55 11 11 1 20 3 20 4 0 2 11 4 55 13 14 3 44 10 68 15 23 5 42 8
42 5 0 -3 7 0 15 7 8 7 15 10 15 7 0 -3 13 -2 28 2 l28 9 2 -82 c0 -44 1 -81
2 -81 1 0 3 -45 5 -100 13 -343 18 -478 29 -705 2 -36 4 -65 5 -65 1 0 4 -31
5 -70 5 -135 19 -148 195 -181 13 -3 32 -9 43 -15 10 -5 18 -7 18 -5 0 3 19
-2 43 -10 23 -9 51 -17 62 -19 11 -2 35 -8 53 -13 18 -6 36 -12 40 -13 4 -1
12 -3 17 -5 6 -1 69 -17 140 -34 72 -17 146 -36 165 -41 19 -6 44 -12 55 -14
11 -2 21 -4 23 -5 3 -3 11 -5 62 -14 25 -5 49 -11 55 -14 5 -3 18 -7 30 -8 11
-1 43 -8 70 -14 28 -7 59 -14 70 -16 11 -2 40 -8 65 -14 25 -6 56 -13 70 -15
14 -2 36 -6 50 -9 14 -3 57 -13 95 -21 39 -8 81 -17 95 -19 14 -3 27 -5 30 -6
3 -1 10 -3 15 -4 6 -1 21 -5 35 -9 14 -3 43 -8 65 -11 22 -3 51 -8 65 -11 26
-6 42 -9 130 -26 54 -10 95 -17 135 -23 11 -2 36 -7 55 -11 19 -4 46 -9 60
-11 14 -1 39 -6 55 -9 17 -4 44 -8 60 -10 17 -2 30 -4 30 -5 0 -1 14 -4 30 -6
17 -2 41 -6 55 -8 14 -3 43 -8 65 -11 22 -3 51 -8 65 -11 14 -3 41 -7 60 -10
19 -2 51 -7 70 -10 19 -3 51 -7 70 -10 19 -2 62 -9 95 -16 33 -6 78 -12 100
-14 22 -2 51 -5 65 -8 14 -3 41 -7 60 -10 19 -3 52 -7 73 -10 20 -3 54 -9 75
-12 58 -9 104 -15 142 -19 19 -2 51 -6 70 -9 19 -3 58 -8 85 -11 28 -4 79 -10
115 -15 36 -4 72 -8 80 -8 8 0 26 -3 40 -6 23 -4 87 -12 170 -21 36 -4 93 -11
165 -19 22 -3 63 -8 90 -11 101 -11 141 -16 180 -21 22 -2 63 -7 90 -9 101 -9
150 -14 150 -15 0 0 23 -3 50 -5 28 -3 75 -7 105 -10 30 -4 75 -8 100 -11 65
-7 157 -15 220 -19 30 -3 73 -7 95 -10 22 -3 72 -7 110 -10 39 -2 90 -7 115
-10 41 -5 115 -11 240 -20 25 -2 45 -4 45 -5 0 -1 23 -3 50 -5 72 -4 201 -14
270 -20 33 -3 96 -8 140 -11 44 -2 100 -6 125 -9 108 -9 359 -25 465 -30 39
-2 70 -4 70 -5 0 -2 78 -7 215 -13 36 -2 71 -6 78 -11 7 -4 12 -2 12 4 0 6 5
8 11 4 11 -7 112 -14 247 -17 39 0 72 -4 72 -7 0 -3 33 -5 73 -6 70 0 203 -7
472 -22 170 -9 1590 -9 1770 0 77 5 183 10 235 13 52 3 142 7 200 10 149 7
336 18 530 31 58 3 134 8 170 10 36 2 97 6 135 9 39 2 106 6 150 9 44 3 112 7
150 11 64 5 102 8 270 20 33 2 94 7 135 10 41 4 107 8 145 10 39 2 70 5 70 5
0 1 20 3 45 5 100 7 198 15 250 20 62 7 169 16 215 19 17 1 35 5 42 9 6 4 14
3 18 -3 4 -6 11 -7 17 -4 11 7 24 9 138 18 83 7 164 15 215 20 22 3 74 8 115
12 41 3 82 7 90 9 15 3 173 18 200 20 8 0 21 4 29 9 10 7 12 6 6 -4 -6 -9 -4
-11 4 -5 13 7 62 14 138 18 24 1 43 4 43 7 0 3 17 5 38 5 20 -1 41 1 47 4 5 3
28 6 50 7 22 1 40 2 40 3 0 1 20 4 45 7 73 7 115 12 115 14 0 0 25 3 55 5 30
3 71 8 90 11 19 3 53 7 75 10 22 2 54 6 70 9 35 5 109 15 145 19 14 1 31 6 38
10 7 4 12 2 12 -4 0 -6 5 -8 10 -5 6 4 20 8 33 10 68 10 125 18 147 20 14 2
43 6 65 9 22 3 58 8 79 11 22 3 51 7 65 10 36 5 111 17 141 21 14 1 36 5 50 8
14 2 48 7 75 11 28 3 59 8 70 11 11 2 38 6 60 10 61 8 136 20 185 29 19 4 46
9 60 10 27 4 69 11 110 19 14 3 41 7 60 10 19 3 46 8 60 11 36 7 129 24 174
31 21 3 48 8 60 10 45 10 101 21 156 30 19 3 62 12 95 19 32 8 61 12 64 10 2
-3 10 0 18 6 7 6 13 9 13 6 0 -3 15 -1 33 4 17 6 46 12 62 15 39 6 70 12 70
14 0 1 9 3 20 4 20 3 92 17 110 22 6 2 24 6 40 9 17 3 48 11 70 17 22 6 54 12
70 15 17 2 37 6 45 9 22 8 62 17 83 18 9 0 17 5 17 10 0 5 3 7 6 4 3 -3 31 1
62 9 69 18 88 23 127 30 17 2 36 10 43 15 7 6 15 8 18 5 3 -3 18 -1 33 5 14 5
35 12 46 14 58 11 81 17 90 22 6 4 15 7 20 9 46 10 59 13 75 18 10 3 27 8 37
10 128 32 229 61 231 67 2 4 9 8 16 8 15 0 49 57 41 69 -3 5 -1 12 5 16 6 4 7
12 1 23 -5 9 -5 26 0 39 5 15 5 23 -2 23 -6 0 -7 6 -2 13 4 6 8 32 9 57 2 25
5 104 9 175 13 285 27 627 26 663 -1 38 14 55 50 58 32 2 63 7 119 19 14 3 43
8 65 11 22 3 42 7 45 7 3 1 23 -3 45 -8 22 -4 46 -7 53 -6 6 1 12 -2 12 -7 0
-5 12 -8 26 -6 14 1 41 -4 60 -12 18 -8 36 -14 39 -14 3 0 6 0 8 -1 1 0 13 -2
27 -4 27 -4 59 -10 100 -20 14 -3 36 -8 50 -11 14 -2 48 -10 75 -16 28 -7 55
-13 60 -13 6 -1 12 -3 15 -4 3 -1 18 -4 34 -6 16 -2 36 -7 45 -11 9 -4 25 -8
36 -9 11 -2 31 -6 45 -9 14 -4 37 -9 52 -11 15 -2 46 -9 69 -15 24 -7 54 -13
68 -15 14 -2 27 -4 29 -6 2 -2 6 -3 52 -12 19 -4 46 -10 60 -13 14 -3 34 -7
45 -9 11 -2 52 -11 90 -20 39 -9 90 -21 115 -26 25 -4 63 -13 84 -18 22 -5 44
-8 48 -5 4 3 8 0 8 -5 0 -6 3 -10 8 -9 9 2 118 -17 125 -21 1 -2 13 -4 27 -7
14 -2 52 -11 85 -19 33 -8 74 -16 90 -19 17 -2 30 -5 30 -6 0 -2 9 -4 20 -6
11 -2 40 -8 65 -13 25 -5 47 -8 51 -6 3 2 18 6 34 9 27 5 48 27 50 51 2 22
-21 52 -92 119 -163 153 -496 494 -583 596 -63 74 -102 120 -140 167 l-42 53
29 10 c15 6 37 14 48 19 11 5 49 19 85 31 36 12 74 26 85 31 11 6 30 11 43 12
12 0 22 4 22 8 0 6 43 21 52 19 2 -1 36 13 77 30 41 16 79 30 85 30 6 0 22 6
36 13 14 7 46 19 73 26 26 8 50 18 53 22 3 5 15 9 27 9 13 0 33 7 45 16 12 8
22 12 22 8 0 -3 7 0 17 7 9 8 17 13 17 11 1 -4 11 -1 101 31 153 55 302 109
330 122 17 7 41 16 55 20 34 9 90 38 91 47 1 5 2 12 3 17 0 5 4 13 9 17 15 16
6 48 -23 75 -16 16 -34 30 -40 30 -13 2 -29 6 -35 9 -3 1 -8 3 -12 5 -5 1 -21
7 -36 13 -16 7 -34 12 -41 12 -7 0 -16 3 -20 7 -3 4 -12 8 -19 9 -7 1 -31 9
-54 18 -24 8 -43 13 -43 9 0 -3 -11 2 -25 11 -14 9 -25 14 -25 12 0 -3 -20 3
-45 14 -45 19 -326 93 -357 94 -10 0 -18 4 -18 9 0 5 -6 7 -14 4 -8 -3 -17 -3
-20 1 -4 3 -12 7 -19 8 -43 7 -68 13 -75 18 -5 3 -19 7 -33 10 -39 7 -403 97
-419 103 -8 3 -22 7 -30 8 -8 2 -26 6 -40 10 -14 3 -41 8 -60 11 -19 3 -44 10
-55 14 -25 11 -204 52 -227 51 -10 0 -20 4 -23 9 -3 5 -12 7 -20 3 -8 -3 -15
-1 -15 3 0 5 -10 9 -22 10 -13 0 -34 3 -48 7 -14 3 -59 13 -100 22 -41 9 -83
18 -92 21 -17 4 -29 6 -88 19 -62 13 -71 15 -92 21 -13 3 -33 6 -46 5 -13 0
-21 2 -19 7 3 4 -11 8 -30 9 -19 1 -43 5 -52 9 -9 3 -29 8 -46 11 -16 2 -39 5
-50 6 -11 2 -29 6 -40 10 -11 3 -36 8 -55 11 -19 3 -46 8 -60 11 -24 5 -38 8
-120 22 -19 3 -44 8 -55 10 -11 2 -33 6 -50 8 -16 3 -41 7 -55 10 -14 3 -45 8
-70 11 -25 3 -54 8 -65 11 -11 2 -38 6 -60 9 -44 6 -63 20 -69 50 -2 10 -14
41 -25 67 -12 27 -21 53 -21 58 0 4 -11 33 -25 63 -14 30 -25 61 -25 68 0 8
-7 24 -16 36 -8 12 -13 22 -10 22 3 0 -4 24 -15 53 -25 62 -128 364 -134 392
-6 28 -41 147 -48 165 -5 13 -17 58 -49 185 -5 22 -12 51 -14 65 -3 14 -9 39
-14 55 -6 17 -19 77 -31 135 -12 58 -22 110 -24 115 -1 6 -5 30 -9 55 -11 65
-14 85 -16 85 -3 0 -7 26 -20 120 -6 50 -14 103 -16 118 -7 41 -6 41 -5 55 1
10 12 12 49 7 91 -13 107 -16 147 -20 22 -3 65 -7 95 -10 30 -2 55 -5 55 -6 0
-1 30 -4 146 -12 31 -2 61 -7 67 -11 7 -4 12 -3 12 2 0 6 14 7 33 3 58 -13
703 -3 872 13 22 2 80 7 129 11 49 4 99 9 110 11 12 3 41 7 66 9 59 7 119 15
150 20 14 2 43 7 65 10 23 3 52 7 65 10 14 3 41 8 60 11 101 19 138 26 193 40
12 3 33 7 47 10 14 3 48 12 76 20 28 8 61 17 73 19 13 2 31 7 41 10 10 3 27 8
37 10 86 18 208 87 271 153 34 36 35 40 32 112 -2 61 -17 75 -87 78 -181 9
-248 18 -333 41 -115 31 -127 36 -268 102 -46 21 -87 39 -93 39 -5 0 -9 5 -9
10 0 6 -6 10 -14 10 -8 0 -21 6 -28 13 -7 6 -29 20 -48 31 -19 10 -52 31 -72
47 -20 16 -41 29 -47 29 -5 0 -11 3 -13 8 -1 4 -25 25 -52 47 -28 22 -62 51
-77 65 -79 74 -169 162 -205 201 -65 71 -214 256 -214 267 0 6 -4 12 -8 14
-11 4 -92 124 -92 137 0 5 -4 11 -9 13 -8 3 -132 213 -161 273 -8 17 -19 37
-25 45 -6 8 -29 56 -50 105 -22 50 -43 92 -47 93 -4 2 -8 10 -8 18 0 7 -8 28
-18 46 -10 18 -22 45 -26 61 -3 15 -11 27 -16 27 -6 0 -10 8 -10 18 0 10 -6
26 -13 37 -8 11 -22 40 -31 65 -10 25 -23 56 -29 70 -6 14 -11 27 -12 30 -6
27 -30 93 -46 127 -10 24 -19 50 -19 58 0 8 -5 15 -12 15 -6 0 -9 3 -5 6 3 3
1 18 -5 33 -67 172 -129 366 -120 375 3 3 1 6 -5 6 -9 0 -20 48 -29 125 -2 11
-5 34 -9 50 -26 125 -41 206 -51 275 -2 19 -7 46 -9 60 -3 14 -8 54 -11 90 -4
36 -8 79 -10 95 -11 83 -17 149 -30 360 -8 132 -9 555 -1 590 9 35 20 105 20
123 0 6 4 12 9 12 5 0 7 4 4 8 -3 5 8 87 24 183 38 221 43 253 54 339 3 19 7
51 11 70 3 19 8 51 10 70 5 48 13 108 20 150 3 19 7 58 10 85 3 28 7 70 10 95
2 25 7 73 10 108 2 35 8 68 11 74 5 7 2 8 -6 3 -9 -5 -11 -4 -6 3 39 63 40
1168 1 1507 -5 39 -9 89 -9 112 -1 24 -3 43 -6 43 -3 0 -6 19 -7 43 -1 23 -4
58 -8 77 -3 19 -8 58 -11 85 -3 28 -7 61 -10 75 -3 14 -7 41 -9 60 -4 43 -13
107 -20 140 -2 13 -7 40 -10 60 -3 20 -8 47 -11 60 -3 14 -6 32 -6 40 0 8 -7
44 -14 79 -7 36 -11 68 -8 72 2 4 1 10 -4 13 -4 2 -9 17 -10 33 -3 32 -9 68
-13 68 -1 0 -3 9 -4 20 -2 11 -6 31 -9 45 -5 24 -22 102 -30 145 -3 11 -10 43
-16 70 -7 28 -13 55 -14 60 -1 6 -5 19 -9 30 -3 11 -8 33 -11 48 -3 15 -12 54
-22 85 -16 55 -27 202 -15 202 3 0 6 35 5 78 0 42 2 81 4 86 3 5 6 41 8 80 2
39 6 105 8 146 9 128 18 283 20 337 0 29 3 53 6 53 3 0 5 30 6 68 1 37 4 112
8 167 9 135 16 234 22 330 3 44 6 196 8 339 2 214 0 259 -12 264 -8 3 -145 5
-305 6 -249 1 -291 3 -295 16 -9 30 -75 161 -83 166 -5 3 -9 14 -9 25 0 10 -5
19 -10 19 -6 0 -15 12 -21 28 -12 32 -128 207 -158 239 -12 12 -21 25 -21 28
0 3 -10 16 -23 28 -13 12 -33 35 -45 51 -12 16 -22 26 -22 24 0 -3 -19 13 -43
36 -50 49 -105 96 -111 96 -3 0 -22 16 -43 35 -21 19 -41 35 -45 35 -4 0 -27
13 -51 30 -58 39 -188 101 -199 94 -4 -3 -8 -1 -8 3 0 7 -68 32 -105 39 -104
19 -137 22 -240 25 -103 2 -298 -16 -392 -36 -13 -3 -25 -5 -28 -6 -3 0 -23
-6 -45 -14 -22 -8 -40 -12 -40 -9 0 2 -13 -2 -30 -11 -16 -8 -31 -14 -32 -13
-5 4 -203 -64 -212 -72 -9 -9 -81 13 -104 33 -8 6 -18 11 -21 9 -3 -1 -35 10
-71 24 -86 35 -97 39 -152 62 -25 11 -49 18 -52 14 -3 -3 -6 -1 -6 4 0 5 -8
10 -17 11 -10 1 -44 13 -75 27 -32 14 -58 23 -58 21 0 -3 -13 1 -29 9 -16 9
-31 12 -35 9 -3 -4 -6 -1 -6 6 0 7 -4 10 -9 6 -5 -3 -12 -1 -16 5 -3 5 -15 10
-26 10 -10 0 -27 4 -37 9 -16 9 -46 21 -67 27 -5 1 -26 8 -45 15 -46 16 -63
21 -75 25 -5 1 -53 17 -105 34 -52 18 -103 33 -112 35 -9 2 -26 9 -37 15 -12
6 -21 8 -21 4 0 -3 -6 -2 -12 3 -11 9 -102 37 -120 38 -3 0 -10 3 -14 8 -4 4
-18 7 -31 7 -14 0 -32 4 -42 9 -10 6 -31 12 -47 15 -16 2 -29 5 -29 6 0 1 -7
3 -15 5 -26 5 -63 14 -135 30 -38 9 -85 18 -104 20 -18 3 -37 7 -41 10 -4 2
-26 7 -49 10 -23 3 -50 9 -60 14 -9 5 -23 9 -31 8 -18 -1 -110 14 -110 18 0
19 236 225 258 225 6 0 12 4 14 9 6 16 195 104 251 117 9 2 27 6 40 9 109 26
198 29 277 9 14 -3 32 -7 40 -8 8 -2 28 -8 43 -15 16 -6 37 -11 47 -11 10 0
21 -4 24 -9 3 -4 26 -14 51 -21 25 -7 48 -17 51 -21 3 -5 14 -9 25 -9 10 0 19
-3 19 -8 0 -4 25 -18 55 -31 30 -13 55 -28 55 -32 0 -5 5 -9 11 -9 12 0 109
-62 148 -95 48 -40 138 -131 178 -180 23 -28 61 -71 85 -96 23 -25 54 -60 68
-78 14 -18 45 -55 69 -82 42 -48 45 -49 100 -49 64 1 88 14 101 60 9 32 22
143 24 215 1 22 4 45 7 50 5 9 4 220 -1 220 -1 0 -3 27 -5 60 -11 205 -31 320
-75 423 -6 12 -14 32 -19 45 -37 92 -106 218 -123 225 -4 2 -8 8 -8 13 0 39
-244 296 -343 362 -31 21 -59 42 -62 47 -4 6 -11 8 -16 5 -5 -4 -9 -1 -9 4 0
6 -7 11 -15 11 -8 0 -15 5 -15 10 0 6 -5 10 -10 10 -6 0 -56 22 -113 50 -56
27 -115 51 -130 52 -15 1 -27 7 -27 12 0 5 -3 7 -6 3 -3 -3 -28 1 -56 9 -60
18 -171 40 -253 50 -51 6 -283 12 -288 7z m163 -17875 c8 -2 40 -13 70 -25 58
-22 92 -35 100 -38 3 -1 13 -5 23 -8 43 -17 53 -20 66 -23 18 -3 38 -24 26
-25 -6 -1 -30 -2 -55 -4 -25 -2 -45 -4 -45 -5 0 -1 -20 -3 -45 -5 -25 -2 -65
-7 -90 -10 -25 -3 -67 -7 -95 -10 -27 -2 -68 -6 -90 -9 -22 -2 -71 -7 -110
-11 -38 -3 -81 -8 -94 -10 -14 -3 -20 -1 -15 5 11 10 139 88 204 124 25 14 56
34 69 45 22 17 36 19 81 9z"/>
<path d="M3895 22042 c-16 -1 -61 -9 -100 -17 -38 -9 -80 -17 -91 -19 -12 -3
-51 -16 -86 -30 -36 -14 -69 -26 -74 -26 -6 0 -20 -9 -32 -20 -19 -18 -22 -31
-22 -98 1 -50 7 -95 19 -127 39 -105 71 -190 71 -192 0 -1 21 -3 48 -5 53 -3
48 11 56 -143 3 -49 8 -119 11 -155 3 -36 7 -103 10 -150 3 -47 7 -123 10
-170 3 -46 8 -116 10 -155 3 -38 7 -108 10 -155 3 -47 8 -130 12 -185 3 -55 7
-121 7 -147 1 -27 3 -48 6 -48 3 0 6 -11 6 -25 1 -15 -2 -22 -9 -18 -6 4 -7 1
-1 -8 5 -8 10 -30 10 -49 5 -103 14 -259 19 -308 3 -32 7 -88 9 -127 6 -111
-9 -103 194 -99 253 5 247 4 247 37 -1 15 3 27 7 27 5 0 4 9 -2 20 -6 11 -7
20 -2 20 10 0 9 30 -1 47 -4 6 -4 14 1 17 4 2 6 24 4 48 -2 24 -4 91 -5 150
-1 60 -5 108 -8 108 -3 0 -4 13 -1 29 l4 30 25 -27 c80 -86 325 -343 423 -443
l115 -117 70 1 c65 2 73 5 109 37 102 92 176 172 170 182 -4 6 -6 35 -5 65 2
52 -12 81 -64 139 -84 92 -262 281 -436 461 -43 45 -79 87 -79 92 0 6 14 18
32 27 33 17 35 19 83 60 61 54 111 102 135 133 14 17 30 37 35 44 70 85 138
245 151 357 2 19 6 49 9 67 3 18 0 35 -5 38 -6 4 -7 13 -2 23 7 15 9 128 2
142 -1 3 -2 9 -1 14 4 17 -29 144 -48 190 -47 109 -145 226 -247 297 -82 56
-230 121 -303 134 -19 3 -38 8 -42 11 -21 12 -370 25 -464 16z m315 -464 c0
-5 8 -8 18 -8 40 0 147 -63 202 -119 59 -61 83 -102 98 -167 22 -98 -75 -258
-211 -351 -23 -15 -44 -30 -47 -33 -4 -4 -67 -36 -90 -46 -3 -1 -6 12 -6 29
-1 18 -4 82 -8 142 -4 61 -9 146 -11 190 -5 95 -13 215 -20 307 l-6 68 41 -3
c22 -1 40 -5 40 -9z"/>
<path d="M8117 21983 c-2 -1 -21 -5 -43 -8 -77 -10 -173 -30 -181 -38 -8 -9
-12 -217 -3 -217 3 0 6 -17 6 -37 1 -35 8 -100 20 -193 7 -56 14 -131 17 -180
2 -25 6 -51 10 -57 4 -7 3 -14 -3 -18 -6 -4 -8 -10 -5 -15 8 -13 15 -89 18
-177 1 -40 5 -73 10 -73 4 0 5 -5 2 -10 -3 -6 -8 -70 -10 -143 -1 -72 -5 -143
-9 -157 -3 -14 -8 -52 -11 -85 -7 -68 -11 -99 -20 -135 -3 -14 -8 -36 -10 -50
-15 -92 -82 -266 -122 -319 -35 -46 -76 -83 -107 -96 -26 -12 -34 -11 -53 1
-13 8 -23 12 -23 8 0 -8 -69 44 -95 71 -49 53 -75 86 -75 94 0 5 -4 11 -9 13
-20 8 -106 212 -136 323 -1 6 -3 13 -4 17 -1 4 -7 22 -12 40 -11 39 -20 82
-24 123 -2 17 -4 30 -5 30 -2 0 -6 31 -15 110 -12 115 -9 278 10 490 2 22 6
70 9 106 3 36 7 77 10 91 7 39 20 160 20 195 1 17 4 35 8 38 4 4 4 15 0 24 -5
9 -7 27 -5 41 9 62 -2 88 -39 96 -5 1 -9 3 -10 4 -2 1 -14 3 -28 5 -60 7 -127
17 -155 23 -26 6 -81 7 -162 3 -18 -1 -31 -19 -48 -71 -2 -7 -18 -114 -17
-120 0 -3 -4 -13 -9 -22 -7 -13 -6 -18 3 -18 8 0 9 -3 3 -8 -11 -8 -16 -23
-20 -67 -2 -16 -6 -50 -10 -75 -31 -206 -37 -657 -11 -880 15 -133 46 -292 75
-388 11 -35 12 -42 16 -57 1 -5 7 -26 14 -45 7 -19 14 -39 15 -45 6 -22 21
-54 67 -150 47 -97 126 -214 181 -265 66 -61 85 -77 123 -100 22 -13 43 -29
47 -34 4 -6 8 -8 8 -3 0 4 10 1 23 -7 12 -8 56 -24 97 -37 64 -19 98 -22 235
-22 143 0 167 3 220 23 58 22 123 62 173 105 69 59 169 221 213 345 13 36 25
67 28 70 3 3 7 12 7 20 1 8 11 51 22 95 18 70 25 108 38 200 1 11 3 20 4 20 2
0 5 34 13 136 2 31 7 61 11 67 3 6 2 13 -3 16 -5 3 -6 21 -2 38 9 42 7 516 -2
524 -4 4 -2 13 4 21 6 7 7 13 3 13 -5 0 -10 21 -10 48 -1 44 -8 152 -19 317
-3 39 -8 84 -11 100 -2 17 -7 55 -9 85 -6 63 -20 135 -37 198 l-12 42 -93 -2
c-51 -1 -94 -3 -96 -5z"/>
<path d="M6296 21973 c-1 -1 -34 -3 -73 -4 -42 -1 -73 -6 -76 -13 -2 -6 -2
-67 -1 -136 2 -69 5 -272 7 -452 4 -313 4 -326 -14 -331 -11 -3 -19 -2 -19 1
0 4 -66 8 -148 8 -81 1 -188 3 -238 4 l-92 2 5 97 c6 131 10 206 12 206 1 0 4
61 7 135 9 238 10 256 18 268 4 7 2 12 -4 12 -6 0 -8 5 -5 11 11 16 13 139 3
146 -9 5 -439 5 -444 0 -8 -8 -28 -320 -40 -622 -5 -124 -11 -234 -13 -245 -1
-3 -40 -6 -87 -6 -61 -1 -89 -6 -95 -15 -10 -16 -11 -32 -13 -242 -3 -176 1
-185 72 -187 40 0 83 -4 102 -9 3 0 5 -180 5 -398 0 -219 1 -402 3 -406 2 -4
5 -50 7 -102 2 -52 6 -99 10 -105 3 -5 1 -10 -6 -10 -10 0 -10 -3 -1 -12 11
-11 127 -16 138 -5 4 3 15 2 25 -4 11 -5 19 -6 19 -2 0 4 55 8 123 8 75 0 127
4 134 11 9 8 10 107 7 390 -6 436 -6 525 -4 539 1 6 1 28 0 51 l-1 41 200 -1
c111 -1 201 -5 201 -9 0 -5 5 -5 12 -1 16 10 111 5 123 -7 10 -10 11 -33 19
-549 3 -179 7 -368 9 -420 l2 -95 160 -1 c88 0 165 4 172 8 6 5 13 5 16 1 3
-4 27 -8 53 -7 l48 1 -1 69 c0 38 -4 229 -8 424 -4 195 -6 364 -5 375 1 11 1
25 1 30 0 6 -2 156 -5 335 -10 653 -18 1146 -19 1185 l-2 40 -148 0 c-82 0
-149 -1 -151 -2z"/>
<path d="M8654 21942 c-54 -1 -104 -8 -111 -14 -11 -9 -12 -151 -8 -782 4
-696 14 -1465 19 -1556 1 -30 6 -37 32 -45 43 -14 337 -9 689 11 140 7 308 15
425 19 69 2 125 4 125 5 0 1 29 3 65 5 36 2 68 4 72 4 4 1 7 101 6 222 l0 221
-311 -6 c-300 -6 -436 -11 -578 -20 -36 -2 -70 -1 -75 2 -5 4 -10 174 -12 387
-9 1234 -15 1512 -31 1528 -14 14 -165 23 -307 19z"/>
</g>
</svg>
